# xmcd CD database file
#
# Track frame offsets:
#	150
#	16610
#	31518
#	50096
#	67389
#	86100
#	107101
#	127074
#	148247
#	168741
#	183127
#	206134
#
# Disc length: 2947 seconds
#
# Revision: 1
# Processed by: cddbd v1.4PL0 Copyright (c) Steve Scherf et al.
# Submitted via: CDex 1.50Beta7
#
DISCID=b20b810c
DTITLE=Ennis In Theory - Take Me Home
DYEAR=2000
DGENRE=Blues
TTITLE0=Good Old TIme
TTITLE1=Say You're Gonna Leave
TTITLE2=Don't Leave Me Long
TTITLE3=Easy Girl
TTITLE4=Shoe Shine Boy
TTITLE5=Ramblin' Man
TTITLE6=Tried So Hard
TTITLE7=Will You Come See Me
TTITLE8=Down To The City
TTITLE9=Tried To Love You
TTITLE10=Been Missin' You
TTITLE11=14 Days
EXTD=YEAR: 2000
EXTT0=
EXTT1=
EXTT2=
EXTT3=
EXTT4=
EXTT5=
EXTT6=
EXTT7=
EXTT8=
EXTT9=
EXTT10=
EXTT11=
PLAYORDER=
